<?xml version="1.0" encoding="UTF-8" standalone="no"?>
<!-- Generator: Adobe Illustrator 21.0.2, SVG Export Plug-In . SVG Version: 6.00 Build 0)  -->

<svg
   version="1.1"
   id="Layer_1"
   x="0px"
   y="0px"
   viewBox="0 0 795 325"
   style="enable-background:new 0 0 795 325;"
   xml:space="preserve"
   sodipodi:docname="KACA_logo.svg"
   inkscape:version="1.2.1 (9c6d41e410, 2022-07-14)"
   xmlns:inkscape="http://www.inkscape.org/namespaces/inkscape"
   xmlns:sodipodi="http://sodipodi.sourceforge.net/DTD/sodipodi-0.dtd"
   xmlns="http://www.w3.org/2000/svg"
   xmlns:svg="http://www.w3.org/2000/svg"><defs
   id="defs27" /><sodipodi:namedview
   id="namedview25"
   pagecolor="#ffffff"
   bordercolor="#000000"
   borderopacity="0.25"
   inkscape:showpageshadow="2"
   inkscape:pageopacity="0.0"
   inkscape:pagecheckerboard="0"
   inkscape:deskcolor="#d1d1d1"
   showgrid="false"
   inkscape:zoom="2"
   inkscape:cx="309.75"
   inkscape:cy="157"
   inkscape:window-width="3840"
   inkscape:window-height="2126"
   inkscape:window-x="3829"
   inkscape:window-y="-11"
   inkscape:window-maximized="1"
   inkscape:current-layer="g20" />
<style
   type="text/css"
   id="style2">
	.st0{fill:#FFC200;}
	.st1{fill:none;}
</style>
<path
   class="st0"
   d="m 398,257.6 c -23.7,-6.6 -48.3,-23.5 -63.1,-52.8 -2.8,-5.5 -11.3,-1.7 -9,4 3.6,9 11.7,19.4 0.6,24 -7,2.9 -15.8,-7.5 -20.2,-13.6 -1.4,-2 -4.3,-2.1 -6,-0.4 -10.2,10.3 -18.5,-1.1 -22.9,-10.4 -1,-2.2 -3.8,-2.9 -5.7,-1.5 -20.2,14.1 -26.3,4.8 -27.3,-8.1 -0.2,-2.1 -2.1,-3.7 -4.2,-3.5 -21.3,1.9 -21.9,-5.2 -21.7,-14.3 0.1,-2.3 -1.9,-4.1 -4.1,-3.9 -20.6,1.3 -36.5,0.7 -38.6,-14.4 -0.5,-3.8 -3.9,-6.5 -7.8,-6.3 -13.5,0.6 -40.2,2.6 -40.2,-17.7 0,-7.4 -5.7,-8.7 -10.9,-9.1 -29.2,-2.3 -39.2,-13.8 -40.6,-24 -0.4,-3 -3.7,-4.8 -6.7,-4.9 -23.5,-0.6 -48.9,-9 -52.9,-21.6 -0.6,-1.8 0.8,-3.7 2.7,-3.6 24.6,0 174.2,17.6 241.2,2.2 19.8,-4.5 43.6,-10 54.5,11.3 1.3,2 3.6,3.2 6,3.2 4.1,0 7.4,-3.2 7.4,-7.2 V 73.3 c 18.8,14.3 47.7,13.8 69.6,-2.4 21.9,16.2 50.8,16.7 69.6,2.4 V 85 c 0,4 3.3,7.2 7.4,7.2 2.4,0 4.7,-1.2 6,-3.2 10.8,-21.3 34.7,-15.8 54.5,-11.3 67,15.4 216.6,-2.2 241.2,-2.2 1.9,-0.1 3.3,1.7 2.7,3.6 -4,12.6 -29.4,21.1 -52.9,21.6 -3,0.1 -6.3,1.9 -6.7,4.9 -1.4,10.2 -11.4,21.7 -40.6,24 -5.3,0.4 -10.9,1.7 -10.9,9.1 0,20.3 -26.7,18.3 -40.2,17.7 -3.9,-0.2 -7.2,2.5 -7.8,6.3 -2.1,15.1 -18.1,15.7 -38.6,14.4 -2.3,-0.1 -4.2,1.7 -4.1,3.9 0.2,9.2 -0.4,16.3 -21.7,14.3 -2.2,-0.2 -4.1,1.4 -4.2,3.5 -1,12.9 -7.1,22.1 -27.3,8.1 -2,-1.4 -4.7,-0.7 -5.7,1.5 -4.4,9.3 -12.7,20.6 -22.9,10.4 -1.7,-1.7 -4.5,-1.5 -6,0.4 -4.4,6.1 -13.3,16.4 -20.2,13.6 -11.1,-4.6 -3,-15 0.6,-24 2.3,-5.7 -6.2,-9.5 -9,-4 -15,29.3 -39.6,46.2 -63.3,52.8 z"
   id="path4"
   style="display:inline" />
<path
   class="st1"
   d="m 398,257.6 c -23.7,-6.6 -48.3,-23.5 -63.1,-52.8 -2.8,-5.5 -11.3,-1.7 -9,4 3.6,9 11.7,19.4 0.6,24 -7,2.9 -15.8,-7.5 -20.2,-13.6 -1.4,-2 -4.3,-2.1 -6,-0.4 -10.2,10.3 -18.5,-1.1 -22.9,-10.4 -1,-2.2 -3.8,-2.9 -5.7,-1.5 -20.2,14.1 -26.3,4.8 -27.3,-8.1 -0.2,-2.1 -2.1,-3.7 -4.2,-3.5 -21.3,1.9 -21.9,-5.2 -21.7,-14.3 0.1,-2.3 -1.9,-4.1 -4.1,-3.9 -20.6,1.3 -36.5,0.7 -38.6,-14.4 -0.5,-3.8 -3.9,-6.5 -7.8,-6.3 -13.5,0.6 -40.2,2.6 -40.2,-17.7 0,-7.4 -5.7,-8.7 -10.9,-9.1 -29.2,-2.3 -39.2,-13.8 -40.6,-24 -0.4,-3 -3.7,-4.8 -6.7,-4.9 -23.5,-0.6 -48.9,-9 -52.9,-21.6 -0.6,-1.8 0.8,-3.7 2.7,-3.6 24.6,0 174.2,17.6 241.2,2.2 19.8,-4.5 43.6,-10 54.5,11.3 1.3,2 3.6,3.2 6,3.2 4.1,0 7.4,-3.2 7.4,-7.2 V 73.3 c 18.8,14.3 47.7,13.8 69.6,-2.4 21.9,16.2 50.8,16.7 69.6,2.4 V 85 c 0,4 3.3,7.2 7.4,7.2 2.4,0 4.7,-1.2 6,-3.2 10.8,-21.3 34.7,-15.8 54.5,-11.3 67,15.4 216.6,-2.2 241.2,-2.2 1.9,-0.1 3.3,1.7 2.7,3.6 -4,12.6 -29.4,21.1 -52.9,21.6 -3,0.1 -6.3,1.9 -6.7,4.9 -1.4,10.2 -11.4,21.7 -40.6,24 -5.3,0.4 -10.9,1.7 -10.9,9.1 0,20.3 -26.7,18.3 -40.2,17.7 -3.9,-0.2 -7.2,2.5 -7.8,6.3 -2.1,15.1 -18.1,15.7 -38.6,14.4 -2.3,-0.1 -4.2,1.7 -4.1,3.9 0.2,9.2 -0.4,16.3 -21.7,14.3 -2.2,-0.2 -4.1,1.4 -4.2,3.5 -1,12.9 -7.1,22.1 -27.3,8.1 -2,-1.4 -4.7,-0.7 -5.7,1.5 -4.4,9.3 -12.7,20.6 -22.9,10.4 -1.7,-1.7 -4.5,-1.5 -6,0.4 -4.4,6.1 -13.3,16.4 -20.2,13.6 -11.1,-4.6 -3,-15 0.6,-24 2.3,-5.7 -6.2,-9.5 -9,-4 -15,29.3 -39.6,46.2 -63.3,52.8 z"
   id="path6"
   style="display:inline" />
<g
   id="g22"
   style="display:inline">
	<g
   id="g10">
		<path
   d="m 397.5,261 -0.8,-0.2 c -27.7,-7.7 -51.4,-27.5 -65,-54.3 -0.7,-1.5 -2,-1.1 -2.5,-0.8 -0.5,0.2 -1.6,0.9 -1,2.4 0.6,1.6 1.5,3.3 2.3,5.1 2.7,5.6 5.5,11.4 3.5,16.5 -1.1,2.7 -3.4,4.9 -6.9,6.3 -8.4,3.4 -17.5,-6 -23.8,-14.6 -0.2,-0.3 -0.5,-0.3 -0.7,-0.4 -0.2,0 -0.5,0 -0.8,0.3 -3.9,3.9 -7.9,5.5 -12.1,4.8 -7.2,-1.2 -12.4,-9.4 -15.6,-16 -0.1,-0.3 -0.4,-0.4 -0.6,-0.5 -0.2,0 -0.5,-0.1 -0.8,0.1 -10.1,7.1 -17.8,9.2 -23.6,6.4 -4.9,-2.3 -7.7,-8 -8.4,-16.7 0,-0.3 -0.2,-0.5 -0.3,-0.6 -0.1,-0.1 -0.3,-0.2 -0.7,-0.2 -10.8,1 -17.3,-0.2 -21.1,-3.7 -4.1,-3.8 -3.9,-9.5 -3.8,-13.7 0,-0.3 -0.1,-0.5 -0.3,-0.6 -0.1,-0.1 -0.4,-0.3 -0.7,-0.3 -15.5,1 -39,2.5 -41.8,-16.9 -0.3,-2.2 -2.3,-3.9 -4.7,-3.8 l -1.3,0.1 c -11,0.5 -27.7,1.3 -36.5,-7 -3.6,-3.5 -5.5,-8.1 -5.5,-13.7 0,-4.2 -2,-5.7 -8.2,-6.2 C 103.7,131.9 75.4,127.4 72.5,106.3 72.6,105.1 70.8,104 69,104 45.5,103.4 18,94.9 13.3,80.3 c -0.6,-1.8 -0.2,-3.7 0.9,-5.2 1.1,-1.5 3,-2.3 4.8,-2.2 v 0 c 5.7,0 18,0.9 34.9,2.2 54,4.1 154.5,11.8 205.5,0.1 20.4,-4.7 45.8,-10.5 57.7,12.7 0.8,1.1 2.1,1.8 3.5,1.8 v 0 c 1.2,0 2.3,-0.4 3.1,-1.3 0.8,-0.8 1.2,-1.8 1.2,-3 V 67.6 l 4.8,3.6 c 17.9,13.7 45.7,12.6 66,-2.4 l 1.8,-1.3 1.8,1.3 c 20.3,15.1 48.1,16.1 66,2.4 l 4.8,-3.6 v 17.7 c 0,1.1 0.4,2.2 1.2,3 0.8,0.8 2,1.3 3.1,1.3 1.4,0 2.7,-0.7 3.5,-1.8 11.9,-23.2 37.3,-17.3 57.6,-12.7 51,11.7 151.5,4.1 205.5,-0.1 17,-1.3 29.2,-2.2 35.1,-2.2 v 0 c 1.7,-0.1 3.5,0.7 4.7,2.2 1.1,1.5 1.5,3.4 0.9,5.2 -4.6,14.7 -32.1,23.2 -55.7,23.8 -1.9,0 -3.6,1.1 -3.8,2.3 -1,7 -7.1,23.7 -43.3,26.5 -6.2,0.5 -8.2,2 -8.2,6.2 0,5.7 -1.8,10.3 -5.5,13.7 -8.8,8.4 -25.5,7.6 -36.5,7 l -1.3,-0.1 c -2.3,-0.1 -4.4,1.5 -4.7,3.8 -2.7,19.5 -26.2,17.9 -41.8,16.9 -0.4,0 -0.6,0.2 -0.7,0.3 -0.1,0.1 -0.3,0.3 -0.3,0.6 0.1,4.2 0.2,9.9 -3.8,13.7 -3.8,3.6 -10.3,4.7 -21.1,3.7 -0.4,0 -0.6,0.1 -0.7,0.2 -0.1,0.1 -0.3,0.3 -0.3,0.6 -0.7,8.8 -3.5,14.4 -8.4,16.7 -5.7,2.7 -13.4,0.6 -23.6,-6.4 -0.3,-0.2 -0.6,-0.2 -0.8,-0.1 -0.1,0 -0.4,0.2 -0.6,0.5 -3.1,6.6 -8.4,14.7 -15.6,16 -4.2,0.7 -8.2,-0.9 -12.1,-4.8 -0.3,-0.3 -0.6,-0.3 -0.8,-0.3 -0.2,0 -0.5,0.1 -0.7,0.4 -6.2,8.5 -15.4,18 -23.8,14.6 -3.5,-1.4 -5.8,-3.5 -6.9,-6.3 -2,-5.1 0.8,-10.9 3.5,-16.5 0.9,-1.8 1.7,-3.5 2.3,-5.1 0.6,-1.5 -0.5,-2.2 -1,-2.4 -0.5,-0.2 -1.8,-0.6 -2.5,0.8 -13.6,26.9 -37.3,46.7 -65,54.4 z m -67.3,-61.6 c 2.6,0 5.3,1.3 6.9,4.3 12.7,25.1 34.7,43.7 60.5,51.1 25.8,-7.4 47.8,-26 60.5,-51.1 2.2,-4.4 6.9,-5.1 10.3,-3.6 3.4,1.5 5.9,5.5 4.1,10 -0.7,1.8 -1.6,3.7 -2.5,5.5 -2.1,4.5 -4.3,9.1 -3.3,11.8 0.5,1.2 1.6,2.1 3.6,2.9 3.6,1.5 10,-3.4 16.7,-12.6 1.2,-1.6 3,-2.6 5,-2.8 2,-0.1 4,0.6 5.5,2 2.5,2.5 4.7,3.5 6.9,3.1 3.6,-0.6 7.7,-5.2 11.2,-12.6 0.9,-1.8 2.5,-3.1 4.4,-3.7 2,-0.5 4,-0.2 5.7,1 8,5.6 14.1,7.6 17.6,5.9 3.5,-1.7 4.7,-7.3 5,-11.8 0.1,-1.8 1,-3.5 2.4,-4.7 1.4,-1.2 3.2,-1.8 5.1,-1.6 8.6,0.8 14.2,0.1 16.5,-2.1 1.8,-1.7 2,-4.4 1.9,-9.2 0,-1.9 0.7,-3.7 2.1,-5.1 1.4,-1.3 3.3,-2 5.2,-1.9 28.2,1.8 34.2,-2.7 35.5,-11.8 0.7,-5.3 5.4,-9.1 10.9,-8.9 l 1.3,0.1 c 9.4,0.5 25.2,1.2 32.1,-5.4 2.4,-2.3 3.6,-5.4 3.6,-9.4 0,-11 10.3,-11.8 13.7,-12.1 31.9,-2.5 37.1,-15.8 37.9,-21.4 0.6,-4.7 5.4,-7.3 9.6,-7.4 24.2,-0.6 46.5,-9.2 50.1,-19.3 -5.9,0 -18.5,1 -34.4,2.2 -54.3,4.1 -155.4,11.8 -207.3,-0.1 -19.4,-4.5 -41.4,-9.5 -51.1,9.7 l -0.2,0.3 c -1.9,2.8 -5,4.5 -8.5,4.5 h -0.1 c -2.7,0 -5.3,-1.1 -7.3,-3 -1.9,-1.9 -3,-4.5 -3,-7.2 V 78.9 C 444.8,90.6 418.5,89 397.7,74.6 376.9,89 350.6,90.6 331.1,78.9 V 85 c 0,2.7 -1.1,5.3 -3,7.2 -2,1.9 -4.6,3 -7.4,3 -3.4,0 -6.6,-1.7 -8.5,-4.5 L 312,90.4 C 302.2,71.2 280.3,76.2 260.9,80.7 209,92.6 107.9,84.9 53.6,80.8 37.6,79.6 24.9,78.6 19.2,78.6 22.6,88.8 44.9,97.4 69.1,98 c 4.2,0.1 8.9,2.7 9.6,7.4 0.8,5.6 6,18.9 37.9,21.4 3.4,0.3 13.7,1.1 13.7,12.1 0,4 1.2,7.1 3.6,9.4 6.9,6.6 22.7,5.8 32.1,5.4 l 1.3,-0.1 c 5.4,-0.2 10.1,3.6 10.8,8.9 1.3,9.1 7.3,13.6 35.5,11.8 1.9,-0.1 3.8,0.6 5.2,1.9 1.4,1.3 2.1,3.2 2.1,5.1 -0.1,4.8 0.2,7.5 1.9,9.2 2.4,2.2 7.9,2.9 16.5,2.1 1.9,-0.2 3.7,0.4 5.1,1.6 1.4,1.2 2.3,2.9 2.4,4.7 0.3,4.5 1.5,10.1 5,11.8 3.5,1.7 9.6,-0.4 17.6,-5.9 1.7,-1.2 3.7,-1.5 5.7,-1 1.9,0.5 3.6,1.9 4.4,3.7 3.5,7.4 7.6,12 11.2,12.6 2.2,0.4 4.4,-0.6 6.9,-3.1 1.4,-1.4 3.4,-2.2 5.5,-2 2,0.2 3.8,1.2 5,2.8 6.7,9.2 13.1,14 16.7,12.6 1.9,-0.8 3.1,-1.7 3.6,-2.9 1,-2.7 -1.2,-7.3 -3.3,-11.8 -0.9,-1.8 -1.7,-3.6 -2.5,-5.5 -1.8,-4.5 0.7,-8.5 4.1,-10 1.1,-0.5 2.3,-0.8 3.5,-0.8 z M 776.3,78.8 Z"
   id="path8"
   style="display:inline" />
	</g>
	<g
   id="g20">
		<path
   d="m 414.9,146.1 c -0.7,-15.1 12.6,-27.3 28.1,-27.3 4.3,0 8.3,1 11.9,2.6 l -2.5,-14 c -2.9,-0.5 -6.7,-0.8 -9.4,-0.8 -22.6,0 -41,16.9 -41,39.5 0,22.6 16.6,40.2 39.2,40.2 4,0 8,0 13.3,-0.9 l 1.5,-11.9 c -4.7,0.4 -8.3,0.5 -13.1,0.5 -17.1,0.1 -27.3,-12.1 -28,-27.9 z"
   id="path12" />
		<path
   d="m 391.9,187.6 11.5,-4 -41.4,-78.3 -41.4,78.3 11.5,4 7.7,-14.6 h 44.3 z m -46.8,-24.4 16.9,-32 16.9,32 z"
   id="path14" />
		<path
   d="m 534,187.1 11.5,-4 -41.4,-78.3 -41.3,78.2 11.5,4 7.7,-14.6 h 44.3 z m -46.8,-24.5 16.9,-32 16.9,32 z"
   id="path16" />
		<path
   d="m 261.88026,137.18269 -0.36009,3.81512 1.68043,-2.11951 34.32863,-32.00457 16.32411,-2.35253 -36.00907,35.62881 37.68949,47.35613 -15.96402,-3.80025 -30.96779,-36.56151 -6.84172,5.82865 0.12003,30.73286 -12.7232,3.25735 v -82.26108 l 12.7232,2.17157 z"
   id="path293"
   sodipodi:nodetypes="ccccccccccccccc"
   inkscape:label="K"
   style="font-size:109.08px;font-family:'Reem Kufi';-inkscape-font-specification:'Reem Kufi, Normal';display:inline;stroke-width:1.17483" /><polygon
   points="302.3,157.8 252.1,103.2 252.1,187.6 263.7,185.4 263.7,133.6 313.9,187.6 313.9,107.3 302.3,110.4 "
   id="polygon18"
   style="display:none"
   inkscape:label="N" />
	</g>
</g>
</svg>
