<?xml version="1.0" encoding="utf-8"?>
<!-- Generator: Adobe Illustrator 21.0.2, SVG Export Plug-In . SVG Version: 6.00 Build 0)  -->
<!DOCTYPE svg PUBLIC "-//W3C//DTD SVG 1.1//EN" "http://www.w3.org/Graphics/SVG/1.1/DTD/svg11.dtd">
<svg version="1.1" id="Layer_1" xmlns="http://www.w3.org/2000/svg" xmlns:xlink="http://www.w3.org/1999/xlink" x="0px" y="0px"
	 viewBox="0 0 795 325" style="enable-background:new 0 0 795 325;" xml:space="preserve">
<style type="text/css">
	.st0{fill:#FFC200;}
	.st1{fill:none;}
</style>
<path class="st0" d="M398,257.6c-23.7-6.6-48.3-23.5-63.1-52.8c-2.8-5.5-11.3-1.7-9,4c3.6,9,11.7,19.4,0.6,24
	c-7,2.9-15.8-7.5-20.2-13.6c-1.4-2-4.3-2.1-6-0.4c-10.2,10.3-18.5-1.1-22.9-10.4c-1-2.2-3.8-2.9-5.7-1.5
	c-20.2,14.1-26.3,4.8-27.3-8.1c-0.2-2.1-2.1-3.7-4.2-3.5c-21.3,1.9-21.9-5.2-21.7-14.3c0.1-2.3-1.9-4.1-4.1-3.9
	c-20.6,1.3-36.5,0.7-38.6-14.4c-0.5-3.8-3.9-6.5-7.8-6.3c-13.5,0.6-40.2,2.6-40.2-17.7c0-7.4-5.7-8.7-10.9-9.1
	c-29.2-2.3-39.2-13.8-40.6-24c-0.4-3-3.7-4.8-6.7-4.9c-23.5-0.6-48.9-9-52.9-21.6c-0.6-1.8,0.8-3.7,2.7-3.6
	c24.6,0,174.2,17.6,241.2,2.2c19.8-4.5,43.6-10,54.5,11.3c1.3,2,3.6,3.2,6,3.2c4.1,0,7.4-3.2,7.4-7.2V73.3
	c18.8,14.3,47.7,13.8,69.6-2.4c21.9,16.2,50.8,16.7,69.6,2.4V85c0,4,3.3,7.2,7.4,7.2c2.4,0,4.7-1.2,6-3.2
	c10.8-21.3,34.7-15.8,54.5-11.3c67,15.4,216.6-2.2,241.2-2.2c1.9-0.1,3.3,1.7,2.7,3.6c-4,12.6-29.4,21.1-52.9,21.6
	c-3,0.1-6.3,1.9-6.7,4.9c-1.4,10.2-11.4,21.7-40.6,24c-5.3,0.4-10.9,1.7-10.9,9.1c0,20.3-26.7,18.3-40.2,17.7
	c-3.9-0.2-7.2,2.5-7.8,6.3c-2.1,15.1-18.1,15.7-38.6,14.4c-2.3-0.1-4.2,1.7-4.1,3.9c0.2,9.2-0.4,16.3-21.7,14.3
	c-2.2-0.2-4.1,1.4-4.2,3.5c-1,12.9-7.1,22.1-27.3,8.1c-2-1.4-4.7-0.7-5.7,1.5c-4.4,9.3-12.7,20.6-22.9,10.4c-1.7-1.7-4.5-1.5-6,0.4
	c-4.4,6.1-13.3,16.4-20.2,13.6c-11.1-4.6-3-15,0.6-24c2.3-5.7-6.2-9.5-9-4C446.3,234.1,421.7,251,398,257.6z"/>
<path class="st1" d="M398,257.6c-23.7-6.6-48.3-23.5-63.1-52.8c-2.8-5.5-11.3-1.7-9,4c3.6,9,11.7,19.4,0.6,24
	c-7,2.9-15.8-7.5-20.2-13.6c-1.4-2-4.3-2.1-6-0.4c-10.2,10.3-18.5-1.1-22.9-10.4c-1-2.2-3.8-2.9-5.7-1.5
	c-20.2,14.1-26.3,4.8-27.3-8.1c-0.2-2.1-2.1-3.7-4.2-3.5c-21.3,1.9-21.9-5.2-21.7-14.3c0.1-2.3-1.9-4.1-4.1-3.9
	c-20.6,1.3-36.5,0.7-38.6-14.4c-0.5-3.8-3.9-6.5-7.8-6.3c-13.5,0.6-40.2,2.6-40.2-17.7c0-7.4-5.7-8.7-10.9-9.1
	c-29.2-2.3-39.2-13.8-40.6-24c-0.4-3-3.7-4.8-6.7-4.9c-23.5-0.6-48.9-9-52.9-21.6c-0.6-1.8,0.8-3.7,2.7-3.6
	c24.6,0,174.2,17.6,241.2,2.2c19.8-4.5,43.6-10,54.5,11.3c1.3,2,3.6,3.2,6,3.2c4.1,0,7.4-3.2,7.4-7.2V73.3
	c18.8,14.3,47.7,13.8,69.6-2.4c21.9,16.2,50.8,16.7,69.6,2.4V85c0,4,3.3,7.2,7.4,7.2c2.4,0,4.7-1.2,6-3.2
	c10.8-21.3,34.7-15.8,54.5-11.3c67,15.4,216.6-2.2,241.2-2.2c1.9-0.1,3.3,1.7,2.7,3.6c-4,12.6-29.4,21.1-52.9,21.6
	c-3,0.1-6.3,1.9-6.7,4.9c-1.4,10.2-11.4,21.7-40.6,24c-5.3,0.4-10.9,1.7-10.9,9.1c0,20.3-26.7,18.3-40.2,17.7
	c-3.9-0.2-7.2,2.5-7.8,6.3c-2.1,15.1-18.1,15.7-38.6,14.4c-2.3-0.1-4.2,1.7-4.1,3.9c0.2,9.2-0.4,16.3-21.7,14.3
	c-2.2-0.2-4.1,1.4-4.2,3.5c-1,12.9-7.1,22.1-27.3,8.1c-2-1.4-4.7-0.7-5.7,1.5c-4.4,9.3-12.7,20.6-22.9,10.4c-1.7-1.7-4.5-1.5-6,0.4
	c-4.4,6.1-13.3,16.4-20.2,13.6c-11.1-4.6-3-15,0.6-24c2.3-5.7-6.2-9.5-9-4C446.3,234.1,421.7,251,398,257.6z"/>
<g>
	<g>
		<path d="M397.5,261l-0.8-0.2c-27.7-7.7-51.4-27.5-65-54.3c-0.7-1.5-2-1.1-2.5-0.8c-0.5,0.2-1.6,0.9-1,2.4c0.6,1.6,1.5,3.3,2.3,5.1
			c2.7,5.6,5.5,11.4,3.5,16.5c-1.1,2.7-3.4,4.9-6.9,6.3c-8.4,3.4-17.5-6-23.8-14.6c-0.2-0.3-0.5-0.3-0.7-0.4c-0.2,0-0.5,0-0.8,0.3
			c-3.9,3.9-7.9,5.5-12.1,4.8c-7.2-1.2-12.4-9.4-15.6-16c-0.1-0.3-0.4-0.4-0.6-0.5c-0.2,0-0.5-0.1-0.8,0.1
			c-10.1,7.1-17.8,9.2-23.6,6.4c-4.9-2.3-7.7-8-8.4-16.7c0-0.3-0.2-0.5-0.3-0.6s-0.3-0.2-0.7-0.2c-10.8,1-17.3-0.2-21.1-3.7
			c-4.1-3.8-3.9-9.5-3.8-13.7c0-0.3-0.1-0.5-0.3-0.6c-0.1-0.1-0.4-0.3-0.7-0.3c-15.5,1-39,2.5-41.8-16.9c-0.3-2.2-2.3-3.9-4.7-3.8
			l-1.3,0.1c-11,0.5-27.7,1.3-36.5-7c-3.6-3.5-5.5-8.1-5.5-13.7c0-4.2-2-5.7-8.2-6.2c-12.1-0.9-40.4-5.4-43.3-26.5
			c0.1-1.2-1.7-2.3-3.5-2.3c-23.5-0.6-51-9.1-55.7-23.7c-0.6-1.8-0.2-3.7,0.9-5.2s3-2.3,4.8-2.2l0,0c5.7,0,18,0.9,34.9,2.2
			c54,4.1,154.5,11.8,205.5,0.1c20.4-4.7,45.8-10.5,57.7,12.7c0.8,1.1,2.1,1.8,3.5,1.8l0,0c1.2,0,2.3-0.4,3.1-1.3
			c0.8-0.8,1.2-1.8,1.2-3V67.6l4.8,3.6c17.9,13.7,45.7,12.6,66-2.4l1.8-1.3l1.8,1.3c20.3,15.1,48.1,16.1,66,2.4l4.8-3.6v17.7
			c0,1.1,0.4,2.2,1.2,3c0.8,0.8,2,1.3,3.1,1.3c1.4,0,2.7-0.7,3.5-1.8c11.9-23.2,37.3-17.3,57.6-12.7C586.5,86.8,687,79.2,741,75
			c17-1.3,29.2-2.2,35.1-2.2l0,0c1.7-0.1,3.5,0.7,4.7,2.2c1.1,1.5,1.5,3.4,0.9,5.2c-4.6,14.7-32.1,23.2-55.7,23.8
			c-1.9,0-3.6,1.1-3.8,2.3c-1,7-7.1,23.7-43.3,26.5c-6.2,0.5-8.2,2-8.2,6.2c0,5.7-1.8,10.3-5.5,13.7c-8.8,8.4-25.5,7.6-36.5,7
			l-1.3-0.1c-2.3-0.1-4.4,1.5-4.7,3.8c-2.7,19.5-26.2,17.9-41.8,16.9c-0.4,0-0.6,0.2-0.7,0.3c-0.1,0.1-0.3,0.3-0.3,0.6
			c0.1,4.2,0.2,9.9-3.8,13.7c-3.8,3.6-10.3,4.7-21.1,3.7c-0.4,0-0.6,0.1-0.7,0.2c-0.1,0.1-0.3,0.3-0.3,0.6
			c-0.7,8.8-3.5,14.4-8.4,16.7c-5.7,2.7-13.4,0.6-23.6-6.4c-0.3-0.2-0.6-0.2-0.8-0.1c-0.1,0-0.4,0.2-0.6,0.5
			c-3.1,6.6-8.4,14.7-15.6,16c-4.2,0.7-8.2-0.9-12.1-4.8c-0.3-0.3-0.6-0.3-0.8-0.3c-0.2,0-0.5,0.1-0.7,0.4
			c-6.2,8.5-15.4,18-23.8,14.6c-3.5-1.4-5.8-3.5-6.9-6.3c-2-5.1,0.8-10.9,3.5-16.5c0.9-1.8,1.7-3.5,2.3-5.1c0.6-1.5-0.5-2.2-1-2.4
			s-1.8-0.6-2.5,0.8c-13.6,26.9-37.3,46.7-65,54.4L397.5,261z M330.2,199.4c2.6,0,5.3,1.3,6.9,4.3c12.7,25.1,34.7,43.7,60.5,51.1
			c25.8-7.4,47.8-26,60.5-51.1c2.2-4.4,6.9-5.1,10.3-3.6s5.9,5.5,4.1,10c-0.7,1.8-1.6,3.7-2.5,5.5c-2.1,4.5-4.3,9.1-3.3,11.8
			c0.5,1.2,1.6,2.1,3.6,2.9c3.6,1.5,10-3.4,16.7-12.6c1.2-1.6,3-2.6,5-2.8c2-0.1,4,0.6,5.5,2c2.5,2.5,4.7,3.5,6.9,3.1
			c3.6-0.6,7.7-5.2,11.2-12.6c0.9-1.8,2.5-3.1,4.4-3.7c2-0.5,4-0.2,5.7,1c8,5.6,14.1,7.6,17.6,5.9c3.5-1.7,4.7-7.3,5-11.8
			c0.1-1.8,1-3.5,2.4-4.7s3.2-1.8,5.1-1.6c8.6,0.8,14.2,0.1,16.5-2.1c1.8-1.7,2-4.4,1.9-9.2c0-1.9,0.7-3.7,2.1-5.1
			c1.4-1.3,3.3-2,5.2-1.9c28.2,1.8,34.2-2.7,35.5-11.8c0.7-5.3,5.4-9.1,10.9-8.9l1.3,0.1c9.4,0.5,25.2,1.2,32.1-5.4
			c2.4-2.3,3.6-5.4,3.6-9.4c0-11,10.3-11.8,13.7-12.1c31.9-2.5,37.1-15.8,37.9-21.4c0.6-4.7,5.4-7.3,9.6-7.4
			c24.2-0.6,46.5-9.2,50.1-19.3c-5.9,0-18.5,1-34.4,2.2c-54.3,4.1-155.4,11.8-207.3-0.1c-19.4-4.5-41.4-9.5-51.1,9.7l-0.2,0.3
			c-1.9,2.8-5,4.5-8.5,4.5h-0.1c-2.7,0-5.3-1.1-7.3-3c-1.9-1.9-3-4.5-3-7.2v-6.1c-19.5,11.7-45.8,10.1-66.6-4.3
			c-20.8,14.4-47.1,16-66.6,4.3V85c0,2.7-1.1,5.3-3,7.2c-2,1.9-4.6,3-7.4,3c-3.4,0-6.6-1.7-8.5-4.5l-0.2-0.3
			c-9.8-19.2-31.7-14.2-51.1-9.7c-51.9,11.9-153,4.2-207.3,0.1c-16-1.2-28.7-2.2-34.4-2.2C22.6,88.8,44.9,97.4,69.1,98
			c4.2,0.1,8.9,2.7,9.6,7.4c0.8,5.6,6,18.9,37.9,21.4c3.4,0.3,13.7,1.1,13.7,12.1c0,4,1.2,7.1,3.6,9.4c6.9,6.6,22.7,5.8,32.1,5.4
			l1.3-0.1c5.4-0.2,10.1,3.6,10.8,8.9c1.3,9.1,7.3,13.6,35.5,11.8c1.9-0.1,3.8,0.6,5.2,1.9c1.4,1.3,2.1,3.2,2.1,5.1
			c-0.1,4.8,0.2,7.5,1.9,9.2c2.4,2.2,7.9,2.9,16.5,2.1c1.9-0.2,3.7,0.4,5.1,1.6c1.4,1.2,2.3,2.9,2.4,4.7c0.3,4.5,1.5,10.1,5,11.8
			s9.6-0.4,17.6-5.9c1.7-1.2,3.7-1.5,5.7-1c1.9,0.5,3.6,1.9,4.4,3.7c3.5,7.4,7.6,12,11.2,12.6c2.2,0.4,4.4-0.6,6.9-3.1
			c1.4-1.4,3.4-2.2,5.5-2c2,0.2,3.8,1.2,5,2.8c6.7,9.2,13.1,14,16.7,12.6c1.9-0.8,3.1-1.7,3.6-2.9c1-2.7-1.2-7.3-3.3-11.8
			c-0.9-1.8-1.7-3.6-2.5-5.5c-1.8-4.5,0.7-8.5,4.1-10C327.8,199.7,329,199.4,330.2,199.4z M776.3,78.8L776.3,78.8L776.3,78.8z"/>
	</g>
	<g>
		<path d="M414.9,146.1c-0.7-15.1,12.6-27.3,28.1-27.3c4.3,0,8.3,1,11.9,2.6l-2.5-14c-2.9-0.5-6.7-0.8-9.4-0.8
			c-22.6,0-41,16.9-41,39.5s16.6,40.2,39.2,40.2c4,0,8,0,13.3-0.9l1.5-11.9c-4.7,0.4-8.3,0.5-13.1,0.5
			C425.8,174.1,415.6,161.9,414.9,146.1z"/>
		<path d="M391.9,187.6l11.5-4L362,105.3l-41.4,78.3l11.5,4l7.7-14.6h44.3L391.9,187.6z M345.1,163.2l16.9-32l16.9,32H345.1z"/>
		<path d="M534,187.1l11.5-4l-41.4-78.3L462.8,183l11.5,4l7.7-14.6h44.3L534,187.1z M487.2,162.6l16.9-32l16.9,32H487.2z"/>
		<polygon points="252.1,103.2 252.1,187.6 263.7,185.4 263.7,133.6 313.9,187.6 313.9,107.3 302.3,110.4 302.3,157.8 		"/>
	</g>
</g>
</svg>
